<svg xmlns="http://www.w3.org/2000/svg">
  <symbol id="tcl-badge-trunk" data-name="Model Y Trunk" viewBox="0 0 28 28" fill="none" xmlns="http://www.w3.org/2000/svg">
    <path fill-rule="evenodd" clip-rule="evenodd" d="M24.564 1.461a1.575 1.575 0 0 0-2.228 0L16.27 7.527l-3.68-1.082a23.8 23.8 0 0 0-6.716-.967H1.4a1.4 1.4 0 1 0 0 2.8h4.474a21 21 0 0 1 5.926.853l6.628 1.95a29.4 29.4 0 0 0 4.65.967l1.654.207-.295.885a5.053 5.053 0 0 0 .59 4.4c.113.17.173.37.173.575v1.363a1.4 1.4 0 0 1-1.4 1.4h-2.838a6.3 6.3 0 1 0-12.523 0H1.4a1.4 1.4 0 1 0 0 2.8h8.06a6.294 6.294 0 0 0 5.24 2.8 6.294 6.294 0 0 0 5.24-2.8h3.86a4.2 4.2 0 0 0 4.2-4.2v-1.363c0-.757-.224-1.498-.644-2.128a2.253 2.253 0 0 1-.263-1.962l.565-1.695a2.1 2.1 0 0 0-1.732-2.748l-2.501-.312a26.6 26.6 0 0 1-4.095-.843l4.12-4.12 1.11 1.11a1.4 1.4 0 0 0 1.98-1.98l-1.976-1.976ZM14.7 23.677a3.5 3.5 0 1 0 0-7 3.5 3.5 0 0 0 0 7Z" fill="var(--tds-color--secondary)"/>
    <path d="M9.543 13.106a1.4 1.4 0 0 0-.886-2.657c-2.061.687-3.988 1.329-7.257 1.329a1.4 1.4 0 1 0 0 2.8c3.727 0 6-.758 8.137-1.47l.006-.002Z" fill="var(--tds-color--secondary)"/>
  </symbol>
  <symbol id="tcl-badge-injector-camera" data-name="Camera (Alternate)" xmlns="http://www.w3.org/2000/svg" viewBox="0 0 24 24" xml:space="preserve">
    <path d="M22.5 12c0 5.8-4.7 10.5-10.5 10.5S1.5 17.8 1.5 12 6.2 1.5 12 1.5 22.5 6.2 22.5 12zm1.5 0c0 6.6-5.4 12-12 12S0 18.6 0 12 5.4 0 12 0s12 5.4 12 12zm-12 8c4.4 0 8-3.6 8-8s-3.6-8-8-8-8 3.6-8 8 3.6 8 8 8zm-2-8c1.1 0 2-.9 2-2s-.9-2-2-2-2 .9-2 2 .9 2 2 2zm6 3c0 .6-.4 1-1 1s-1-.4-1-1 .4-1 1-1 1 .4 1 1z" fill="var(--tds-color--secondary)" fill-rule="evenodd"/>
  </symbol>
  <symbol id="tcl-badge-customers2" data-name="Customers 2" viewBox="0 0 28 28" xmlns="http://www.w3.org/2000/svg">
    <path d="M12.9948 7.87504C12.9948 9.53943 11.6321 10.9167 9.91667 10.9167C8.20119 10.9167 6.83853 9.53943 6.83853 7.87504C6.83853 6.21065 8.20119 4.83337 9.91667 4.83337C11.6321 4.83337 12.9948 6.21065 12.9948 7.87504ZM9.91667 17.7639C13.708 17.7639 16.3347 19.6877 17.1593 22H2.67408C3.49859 19.6877 6.1253 17.7639 9.91667 17.7639Z" fill="white" stroke="white" stroke-width="5"/>
    <path fill-rule="evenodd" clip-rule="evenodd" d="M15.1666 12.5997C16.0153 13.1179 17.0141 13.4167 18.0833 13.4167C21.164 13.4167 23.6614 10.9356 23.6614 7.87504C23.6614 4.81453 21.164 2.33337 18.0833 2.33337C17.0141 2.33337 16.0153 2.6322 15.1666 3.15037C15.7364 3.49826 16.2384 3.94503 16.6485 4.46662C17.0902 4.28242 17.575 4.1806 18.0833 4.1806C20.1339 4.1806 21.802 5.83795 21.802 7.87504C21.802 9.91213 20.1339 11.5695 18.0833 11.5695C17.575 11.5695 17.0902 11.4677 16.6485 11.2835C16.2384 11.805 15.7364 12.2518 15.1666 12.5997ZM19.3701 17.1822C23.3649 17.635 25.6647 20.1741 26.1224 22.5807C26.0934 22.6155 26.0365 22.6528 25.9602 22.6528H22.1402C22.0384 23.3344 21.4591 23.9922 20.779 24.5H25.9602C26.5849 24.5 27.1671 24.2282 27.5593 23.7532C27.9273 23.3082 28.075 22.7358 27.9637 22.1814C27.149 18.1081 23.0864 15.2639 18.0833 15.2639C17.685 15.2639 17.2927 15.282 16.9076 15.3172C17.8223 15.8205 18.6516 16.4567 19.3701 17.1822Z" fill="white"/>
  </symbol>
  <symbol id="tcl-badge-service" data-name="Service" viewBox="0 0 28 28" xmlns="http://www.w3.org/2000/svg">
    <path d="M25.6666 8.75C25.6666 12.2938 22.7938 15.1667 19.2499 15.1667C18.3346 15.1667 17.4639 14.975 16.676 14.6296L6.32053 24.9851C5.40931 25.8963 3.93192 25.8963 3.0207 24.9851C2.10947 24.0739 2.10947 22.5965 3.0207 21.6852L13.3739 11.332C13.0263 10.542 12.8333 9.66853 12.8333 8.75C12.8333 5.20617 15.7061 2.33333 19.2499 2.33333C19.9126 2.33333 20.5518 2.43378 21.1531 2.62028C21.5408 2.74053 21.6292 3.22463 21.3421 3.51167L18.5342 6.3196C17.7336 7.12016 17.8233 8.50784 18.7346 9.41907C19.6458 10.3303 21.0335 10.42 21.834 9.61943L24.5584 6.89508C24.8518 6.60161 25.3471 6.70199 25.4533 7.10319C25.5925 7.62873 25.6666 8.18071 25.6666 8.75Z" fill="white"/>
  </symbol>
  <symbol id="tcl-badge-seal" data-name="Seal" viewBox="0 0 28 28" xmlns="http://www.w3.org/2000/svg">
    <path fill-rule="evenodd" clip-rule="evenodd" d="M22.2243 11.8622C22.2243 16.4804 18.4804 20.2243 13.8622 20.2243C9.24387 20.2243 5.5 16.4804 5.5 11.8622C5.5 7.24387 9.24387 3.5 13.8622 3.5C18.4804 3.5 22.2243 7.24387 22.2243 11.8622ZM18.0431 20.7968C16.7737 21.3918 15.3568 21.7243 13.8622 21.7243C12.3674 21.7243 10.9504 21.3918 9.68096 20.7967V24.2299L13.4071 22.4385C13.6946 22.3003 14.0294 22.3003 14.317 22.4385L18.0431 24.2299V20.7968ZM19.5431 19.9247C22.0725 18.1393 23.7243 15.1936 23.7243 11.8622C23.7243 6.41544 19.3089 2 13.8622 2C8.41544 2 4 6.41544 4 11.8622C4 15.1935 5.65175 18.1391 8.18096 19.9246V24.9456C8.18096 25.7191 8.98884 26.2271 9.68592 25.8919L13.862 23.8842L18.0382 25.8919C18.7352 26.2271 19.5431 25.7191 19.5431 24.9456V19.9247ZM20.0259 11.8622C20.0259 15.2664 17.2663 18.026 13.8621 18.026C10.4579 18.026 7.69822 15.2664 7.69822 11.8622C7.69822 8.45799 10.4579 5.69834 13.8621 5.69834C17.2663 5.69834 20.0259 8.45799 20.0259 11.8622Z" fill="var(--tds-color--secondary)"/>
  </symbol>
  <symbol id="tcl-pin-intro-screen" data-name="Pin (intro screen)" viewBox="0 0 30 39" fill="none" xmlns="http://www.w3.org/2000/svg">
    <path d="M29.25 15C29.25 16.6273 28.6022 18.6451 27.5109 20.8614C26.4275 23.0618 24.9442 25.3844 23.3558 27.6007C20.1798 32.0324 16.6304 35.9748 15.1551 37.5645C15.0668 37.6597 14.9332 37.6597 14.8449 37.5645C13.3696 35.9748 9.82017 32.0323 6.64419 27.6007C5.05585 25.3844 3.57252 23.0618 2.4891 20.8614C1.39781 18.6451 0.75 16.6273 0.75 15C0.75 7.12994 7.12994 0.75 15 0.75C22.8701 0.75 29.25 7.12994 29.25 15Z" fill="white" stroke="#A2A3A5" stroke-width="1.5"/>
    <path d="M13.9923 19.6174C13.8179 19.6174 13.6434 19.5508 13.5103 19.4176L10.9268 16.8342C10.6605 16.5678 10.6605 16.1364 10.9268 15.87C11.1931 15.6037 11.6246 15.6037 11.8909 15.87L13.9923 17.9714L18.6541 13.3097C18.9204 13.0433 19.3519 13.0433 19.6182 13.3097C19.8845 13.576 19.8845 14.0075 19.6182 14.2738L14.4744 19.4176C14.3412 19.5508 14.1668 19.6174 13.9923 19.6174Z" fill="#171A20"/>
  </symbol>
  <symbol id="tcl-pin-suggest" data-name="Pin (suggest)" viewBox="0 0 30 39" fill="none" xmlns="http://www.w3.org/2000/svg">
    <path d="M29.25 15C29.25 16.6273 28.6022 18.6451 27.5109 20.8614C26.4275 23.0618 24.9442 25.3844 23.3558 27.6007C20.1798 32.0324 16.6304 35.9748 15.1551 37.5645C15.0668 37.6597 14.9332 37.6597 14.8449 37.5645C13.3696 35.9748 9.82017 32.0323 6.64419 27.6007C5.05585 25.3844 3.57252 23.0618 2.4891 20.8614C1.39781 18.6451 0.75 16.6273 0.75 15C0.75 7.12994 7.12994 0.75 15 0.75C22.8701 0.75 29.25 7.12994 29.25 15Z" fill="white" stroke="#A2A3A5" stroke-width="1.5"/>
    <path d="M19.818 16.3636C19.818 16.7401 19.5126 17.0455 19.1361 17.0455H15.9543V20.2273C15.9543 20.6037 15.6489 20.9091 15.2725 20.9091C14.8961 20.9091 14.5907 20.6037 14.5907 20.2273V17.0455H11.4089C11.0324 17.0455 10.7271 16.7401 10.7271 16.3636C10.7271 15.9872 11.0324 15.6818 11.4089 15.6818H14.5907V12.5C14.5907 12.1236 14.8961 11.8182 15.2725 11.8182C15.6489 11.8182 15.9543 12.1236 15.9543 12.5V15.6818H19.1361C19.5126 15.6818 19.818 15.9872 19.818 16.3636Z" fill="#171A20"/>
  </symbol>
  <symbol id="tcl-bag-filled" data-name="Bag (filled)" viewBox="0 0 24 24" fill="none" xmlns="http://www.w3.org/2000/svg">
		<path fill="var(--tds-color--secondary)" style="fill-rule:evenodd;clip-rule:evenodd;" d="M12,0C9,0,6.6,2.4,6.6,5.4v1.8H5.4c-1.7,0-3,1.3-3,3V21c0,1.7,1.3,3,3,3h13.2c1.7,0,3-1.3,3-3V10.2c0-1.7-1.3-3-3-3h-1.2V5.4C17.4,2.4,15,0,12,0z M15.6,7.2V5.4c0-2-1.6-3.6-3.6-3.6S8.4,3.4,8.4,5.4v1.8H15.6z M8.4,10.5C8.4,10,8,9.6,7.5,9.6S6.6,10,6.6,10.5v0.6C6.6,11.6,7,12,7.5,12s0.9-0.4,0.9-0.9V10.5z M16.5,9.6c0.5,0,0.9,0.4,0.9,0.9v0.6c0,0.5-0.4,0.9-0.9,0.9c-0.5,0-0.9-0.4-0.9-0.9v-0.6C15.6,10,16,9.6,16.5,9.6z"/>
  </symbol>
  <symbol id="tcl-barchart-filled" data-name="Barchart (filled)" viewBox="0 0 24 24" fill="none" xmlns="http://www.w3.org/2000/svg">
		<g>
			<defs>
				<rect id="SVGID_1_" y="0" width="24" height="24"/>
			</defs>
			<clipPath id="SVGID_00000157266560628834334250000007378963942294791085_">
				<use xmlns:xlink="http://www.w3.org/1999/xlink" xlink:href="#SVGID_1_" style="overflow:visible;"/>
			</clipPath>
			<g style="clip-path:url(#SVGID_00000157266560628834334250000007378963942294791085_);">
				<path fill="var(--tds-color--secondary)" style="fill-rule:evenodd;clip-rule:evenodd;" d="M1.8,0C0.8,0,0,0.8,0,1.8v20.3c0,1,0.8,1.8,1.8,1.8h20.3c1,0,1.8-0.8,1.8-1.8V1.8c0-1-0.8-1.8-1.8-1.8H1.8z&#10;&#9;&#9;&#9;&#9;&#9; M10.8,5.3c0-0.6,0.5-1.2,1.2-1.2s1.2,0.5,1.2,1.2v13.4c0,0.6-0.5,1.2-1.2,1.2s-1.2-0.5-1.2-1.2V5.3z M4.8,13.6&#10;&#9;&#9;&#9;&#9;&#9;c0-0.6,0.5-1.2,1.2-1.2s1.2,0.5,1.2,1.2v5.1c0,0.6-0.5,1.2-1.2,1.2s-1.2-0.5-1.2-1.2V13.6z M18,9.7c-0.6,0-1.2,0.5-1.2,1.2v7.8&#10;&#9;&#9;&#9;&#9;&#9;c0,0.6,0.5,1.2,1.2,1.2s1.2-0.5,1.2-1.2v-7.8C19.2,10.2,18.6,9.7,18,9.7z"/>
			</g>
		</g>
  </symbol>
	<symbol id="tcl-fan-filled" data-name="Fan (filled)" viewBox="0 0 24 24" fill="none" xmlns="http://www.w3.org/2000/svg">
		<g>
			<defs>
				<rect id="SVGID_1_" y="0" width="24" height="24"/>
			</defs>
			<clipPath id="SVGID_00000106858557091285072240000004201206078526661549_">
				<use xmlns:xlink="http://www.w3.org/1999/xlink" xlink:href="#SVGID_1_" style="overflow:visible;"/>
			</clipPath>
			<g style="clip-path:url(#SVGID_00000106858557091285072240000004201206078526661549_);">
				<path fill="var(--tds-color--secondary)" d="M4.8,5.7c0,3.1,2.6,5.7,5.7,5.7c0.5,0,0.9-0.4,0.9-0.9V0.9C11.4,0.4,11,0,10.5,0C7.4,0,4.8,2.6,4.8,5.7z"/>
				<path fill="var(--tds-color--secondary)" d="M18.3,4.8c-3.1,0-5.7,2.6-5.7,5.7c0,0.5,0.4,0.9,0.9,0.9h9.6c0.5,0,0.9-0.4,0.9-0.9C24,7.4,21.4,4.8,18.3,4.8z"/>
				<path fill="var(--tds-color--secondary)" d="M5.7,19.2c-3.1,0-5.7-2.6-5.7-5.7c0-0.5,0.4-0.9,0.9-0.9h9.6c0.5,0,0.9,0.4,0.9,0.9C11.4,16.6,8.8,19.2,5.7,19.2z"/>
				<path fill="var(--tds-color--secondary)" d="M19.2,18.3c0,3.1-2.6,5.7-5.7,5.7c-0.5,0-0.9-0.4-0.9-0.9v-9.6c0-0.5,0.4-0.9,0.9-0.9C16.6,12.6,19.2,15.2,19.2,18.3z"/>
			</g>
		</g>
	</symbol>
	<symbol id="tcl-lootbox-filled" data-name="Lootbox (filled)" viewBox="0 0 24 24" fill="none" xmlns="http://www.w3.org/2000/svg">
		<g>
			<defs>
				<rect id="SVGID_1_" y="0" width="24" height="24"/>
			</defs>
			<clipPath id="SVGID_00000001635849110281703980000005813844338359100341_">
				<use xmlns:xlink="http://www.w3.org/1999/xlink" xlink:href="#SVGID_1_" style="overflow:visible;"/>
			</clipPath>
			<g style="clip-path:url(#SVGID_00000001635849110281703980000005813844338359100341_);">
				<path fill="var(--tds-color--secondary)" d="M6.2,2.7c-3.2,0-5.8,2.6-5.8,5.8v1.2c0,0.3,0.2,0.5,0.5,0.5h8.3c0.1,0,0.2-0.1,0.2-0.2v0c0-1.1,0.9-2,2-2h1.2&#10;&#9;&#9;&#9;&#9;&#9;c1.1,0,2,0.9,2,2v0c0,0.1,0.1,0.2,0.2,0.2h8.3c0.3,0,0.5-0.2,0.5-0.5V8.5c0-3.2-2.6-5.8-5.8-5.8H6.2z"/>
				<path fill="var(--tds-color--secondary)" d="M23.7,12.5c0-0.3-0.2-0.5-0.5-0.5h-8.3c-0.1,0-0.2,0.1-0.2,0.2v0c0,1.1-0.9,2-2,2h-1.2c-1.1,0-2-0.9-2-2v0&#10;&#9;&#9;&#9;&#9;&#9;c0-0.1-0.1-0.2-0.2-0.2H0.8c-0.3,0-0.5,0.2-0.5,0.5v6.8c0,1.1,0.9,2,2,2h19.3c1.1,0,2-0.9,2-2V12.5z"/>
				<path fill="var(--tds-color--secondary)" d="M11.4,9.7c-0.2,0-0.3,0.1-0.3,0.3v2.3c0,0.2,0.1,0.3,0.3,0.3h1.2c0.2,0,0.3-0.1,0.3-0.3V10c0-0.2-0.1-0.3-0.3-0.3H11.4z"/>
			</g>
		</g>
	</symbol>
	<symbol id="tcl-payment-filled" data-name="Payment (filled)" viewBox="0 0 24 24" fill="none" xmlns="http://www.w3.org/2000/svg">
		<path fill="var(--tds-color--secondary)" d="M3,3.6h18c1.7,0,3,1.3,3,3v0.6c0,0.3-0.3,0.6-0.6,0.6H0.6C0.3,7.8,0,7.5,0,7.2V6.6C0,4.9,1.3,3.6,3,3.6z"/>
		<path fill="var(--tds-color--secondary)" style="fill-rule:evenodd;clip-rule:evenodd;" d="M0.6,9.6h22.8c0.3,0,0.6,0.3,0.6,0.6v7.2c0,1.7-1.3,3-3,3H3c-1.7,0-3-1.3-3-3v-7.2C0,9.9,0.3,9.6,0.6,9.6z&#10;&#9;&#9;&#9; M4.5,16.8h4.2c0.5,0,0.9-0.4,0.9-0.9S9.2,15,8.7,15H4.5c-0.5,0-0.9,0.4-0.9,0.9S4,16.8,4.5,16.8z"/>
	</symbol>
	<symbol id="tcl-security-filled" data-name="Security (filled)" viewBox="0 0 24 24" fill="none" xmlns="http://www.w3.org/2000/svg">
		<g>
			<defs>
				<rect id="SVGID_1_" y="0" width="24" height="24"/>
			</defs>
			<clipPath id="SVGID_00000113331549658252260640000005080634493221058445_">
				<use xmlns:xlink="http://www.w3.org/1999/xlink" xlink:href="#SVGID_1_" style="overflow:visible;"/>
			</clipPath>
			<g style="clip-path:url(#SVGID_00000113331549658252260640000005080634493221058445_);">
				<path fill="var(--tds-color--secondary)" d="M12,0C10.8,0,1.2,4.8,1.2,6c0,12,9.3,18,10.8,18c1.5,0,10.8-6,10.8-18C22.8,4.8,13.2,0,12,0z M16.8,9.7l-5.2,5.2&#10;&#9;&#9;&#9;&#9;&#9;c-0.2,0.2-0.4,0.3-0.6,0.3c-0.2,0-0.5-0.1-0.6-0.3l-2.6-2.6c-0.4-0.4-0.4-0.9,0-1.3c0.4-0.4,0.9-0.3,1.3,0l2,2l4.6-4.6&#10;&#9;&#9;&#9;&#9;&#9;c0.4-0.4,0.9-0.4,1.3,0C17.2,8.8,17.2,9.4,16.8,9.7z"/>
			</g>
		</g>
	</symbol>
	<symbol id="tcl-shirt-filled" data-name="Shirt (filled)" viewBox="0 0 24 24" fill="none" xmlns="http://www.w3.org/2000/svg">
		<g>
			<defs>
				<rect id="SVGID_1_" y="0" width="24" height="24"/>
			</defs>
			<clipPath id="SVGID_00000083794054323935828010000012875756191058022297_">
				<use xmlns:xlink="http://www.w3.org/1999/xlink" xlink:href="#SVGID_1_" style="overflow:visible;"/>
			</clipPath>
			<g style="clip-path:url(#SVGID_00000083794054323935828010000012875756191058022297_);">
				<g>
					<defs>
						<rect id="SVGID_00000052789153912994472710000000081312901771660435_" y="0" width="24" height="24"/>
					</defs>
					<clipPath id="SVGID_00000020389231189523656410000017823023529799616161_">
						<use xmlns:xlink="http://www.w3.org/1999/xlink" xlink:href="#SVGID_00000052789153912994472710000000081312901771660435_" style="overflow:visible;"/>
					</clipPath>
					<g style="clip-path:url(#SVGID_00000020389231189523656410000017823023529799616161_);">
						<path fill="var(--tds-color--secondary)" style="fill-rule:evenodd;clip-rule:evenodd;" d="M14.3,2.7C14.3,4,13.3,5,12,5S9.7,4,9.7,2.7l0,0c0-0.5-0.4-0.9-0.9-0.9H7.7C7.2,1.8,6.8,2,6.5,2.3L1.1,7.7&#10;&#9;&#9;&#9;&#9;&#9;&#9;&#9;c-0.5,0.5-0.5,1.2,0,1.7L3,11.2c0.5,0.4,1.2,0.4,1.6,0l1.5-1.5v11.7c0,0.6,0.5,1.2,1.2,1.2h9.3c0.6,0,1.2-0.5,1.2-1.2V9.7&#10;&#9;&#9;&#9;&#9;&#9;&#9;&#9;l1.5,1.5c0.5,0.5,1.2,0.5,1.6,0l1.9-1.9c0.5-0.5,0.5-1.2,0-1.7l-5.4-5.4c-0.3-0.3-0.8-0.5-1.2-0.5h-1.1&#10;&#9;&#9;&#9;&#9;&#9;&#9;&#9;C14.7,1.8,14.3,2.2,14.3,2.7L14.3,2.7z"/>
					</g>
				</g>
			</g>
		</g>
	</symbol>
	<symbol id="tcl-trend-filled" data-name="Trend (filled)" viewBox="0 0 24 24" fill="none" xmlns="http://www.w3.org/2000/svg">
		<path fill="var(--tds-color--secondary)" d="M3.6,13.3c-0.5,0.5-1.4,0.5-1.9,0c-0.5-0.5-0.5-1.4,0-1.9l6.2-6c0.5-0.5,1.3-0.5,1.8,0l4.4,4.2l6.2-5.9&#10;&#9;&#9;&#9;c0.5-0.5,1.4-0.5,1.9,0c0.5,0.5,0.5,1.4,0,1.9l-7.1,6.8c-0.5,0.5-1.3,0.5-1.8,0L8.9,8.2L3.6,13.3z"/>
		<path fill="var(--tds-color--secondary)" d="M1.3,18C0.6,18,0,18.6,0,19.3c0,0.7,0.6,1.3,1.3,1.3h21.3c0.7,0,1.3-0.6,1.3-1.3c0-0.7-0.6-1.3-1.3-1.3H1.3z"/>
	</symbol>
	<symbol id="tcl-wrench-filled" data-name="Wrench (filled)" viewBox="0 0 24 24" fill="none" xmlns="http://www.w3.org/2000/svg">
		<g>
			<defs>
				<rect id="SVGID_1_" y="0" width="24" height="24"/>
			</defs>
			<clipPath id="SVGID_00000063622826286038316010000009712467246147324847_">
				<use xmlns:xlink="http://www.w3.org/1999/xlink" xlink:href="#SVGID_1_" style="overflow:visible;"/>
			</clipPath>
			<g style="clip-path:url(#SVGID_00000063622826286038316010000009712467246147324847_);">
				<path fill="var(--tds-color--secondary)" d="M23.7,6.7c0,3.5-2.9,6.4-6.4,6.4c-0.9,0-1.8-0.2-2.6-0.5L4.3,23c-0.9,0.9-2.4,0.9-3.3,0c-0.9-0.9-0.9-2.4,0-3.3L11.4,9.3&#10;&#9;&#9;&#9;&#9;&#9;c-0.3-0.8-0.5-1.7-0.5-2.6c0-3.5,2.9-6.4,6.4-6.4c0.7,0,1.3,0.1,1.9,0.3c0.4,0.1,0.5,0.6,0.2,0.9l-2.8,2.8&#10;&#9;&#9;&#9;&#9;&#9;c-0.8,0.8-0.7,2.2,0.2,3.1c0.9,0.9,2.3,1,3.1,0.2l2.7-2.7c0.3-0.3,0.8-0.2,0.9,0.2C23.6,5.6,23.7,6.2,23.7,6.7z"/>
			</g>
		</g>
	</symbol>
	<symbol id="tcl-electric" data-name="Electric" viewBox="0 0 28 28" fill="none" xmlns="http://www.w3.org/2000/svg">
		<path d="M23.7246 11.4553V6.68814H18.958L16.3817 4.11143L14.1714 2L0 15.9818H3.58365L14.1714 5.42614L24.8238 15.9818H28L23.7246 11.4553Z" fill="var(--tds-color--secondary)" fill-opacity="0.9"/>
		<path d="M9.50685 19.3644L13.7412 9.85431C13.8639 9.5791 14.2811 9.6749 14.2683 9.97494L14.0255 15.6798C14.0189 15.8323 14.1405 15.96 14.295 15.9631L18.632 16.0503C18.828 16.0543 18.9574 16.2535 18.8788 16.4309L14.7199 25.8365C14.6003 26.1067 14.1923 26.0226 14.1923 25.7276V20.0871C14.1923 19.9386 14.0717 19.818 13.9219 19.8155L9.75523 19.7455C9.55868 19.7425 9.42884 19.5423 9.50787 19.3644H9.50685Z" fill="var(--tds-color--secondary)" fill-opacity="0.9"/>
	</symbol>
	<symbol id="tcl-supercharger-winner-pin" data-name="Supercharger Winner" fill="none" viewBox="0 0 22 30" xmlns="http://www.w3.org/2000/svg">
	  <path d="M5.5 28.5V19.5H16V28.5L11 24L5.5 28.5Z" stroke="#FBB01B" stroke-width="2" stroke-linecap="round" stroke-linejoin="round"/>
		<path fill-rule="evenodd" clip-rule="evenodd" d="M11 22C17.0751 22 22 17.0751 22 11C22 4.92487 17.0751 0 11 0C4.92487 0 0 4.92487 0 11C0 17.0751 4.92487 22 11 22Z" fill="#FBB01B"/>
		<path d="M10.6924 6.25024C10.8311 5.91659 11.3038 5.91659 11.4426 6.25024L12.6435 9.13755L15.7605 9.38744C16.1207 9.41632 16.2668 9.86584 15.9924 10.1009L13.6175 12.1353L14.343 15.177C14.4269 15.5285 14.0445 15.8063 13.7361 15.618L11.0675 13.988L8.39879 15.618C8.0904 15.8063 7.70802 15.5285 7.79186 15.177L8.51743 12.1353L6.14254 10.1009C5.8681 9.86584 6.01416 9.41632 6.37436 9.38744L9.49145 9.13755L10.6924 6.25024Z" fill="white"/>
	</symbol>
</svg>